<mxfile host="app.diagrams.net" modified="2024-03-05T12:16:07.142Z" agent="Mozilla/5.0 (Macintosh; Intel Mac OS X 10_15_7) AppleWebKit/537.36 (KHTML, like Gecko) Chrome/122.0.0.0 Safari/537.36" version="24.0.1" etag="arE3IjuWZCpTGjG6MNkv" type="github">
  <diagram name="페이지-1" id="VmAhWvT5OcckSfQpTmdh">
    <mxGraphModel>
      <root>
        <mxCell id="0" />
        <mxCell id="1" parent="0" />
      </root>
    </mxGraphModel>
  </diagram>
</mxfile>
